<svg width="126" height="38" viewBox="0 0 126 38" fill="none" xmlns="http://www.w3.org/2000/svg">
<path d="M10.848 30.32C8.608 30.32 6.74133 30.0107 5.248 29.392C3.776 28.752 2.66667 27.9307 1.92 26.928C1.19467 25.904 0.810667 24.8267 0.768 23.696C0.768 23.504 0.832 23.344 0.96 23.216C1.088 23.088 1.248 23.024 1.44 23.024H6.528C6.82667 23.024 7.06133 23.0773 7.232 23.184C7.40267 23.2693 7.584 23.3973 7.776 23.568C7.968 23.8027 8.192 24.0267 8.448 24.24C8.704 24.432 9.03467 24.592 9.44 24.72C9.84533 24.8267 10.3147 24.88 10.848 24.88C11.8293 24.88 12.5867 24.752 13.12 24.496C13.6533 24.2187 13.92 23.8453 13.92 23.376C13.92 23.0133 13.7707 22.7147 13.472 22.48C13.1947 22.2453 12.7147 22.032 12.032 21.84C11.3493 21.648 10.4213 21.4453 9.248 21.232C7.60533 20.9547 6.18667 20.5493 4.992 20.016C3.79733 19.4613 2.88 18.7253 2.24 17.808C1.62133 16.8693 1.312 15.7173 1.312 14.352C1.312 12.9653 1.696 11.7387 2.464 10.672C3.25333 9.60533 4.34133 8.77333 5.728 8.176C7.136 7.57867 8.768 7.28 10.624 7.28C12.16 7.28 13.5147 7.48267 14.688 7.888C15.8827 8.29333 16.8853 8.82667 17.696 9.488C18.5067 10.128 19.1253 10.8213 19.552 11.568C19.9787 12.3147 20.2027 13.0293 20.224 13.712C20.224 13.904 20.1493 14.0747 20 14.224C19.872 14.352 19.7227 14.416 19.552 14.416H14.208C13.952 14.416 13.728 14.3733 13.536 14.288C13.3653 14.2027 13.2053 14.064 13.056 13.872C12.9493 13.5733 12.6827 13.3067 12.256 13.072C11.8293 12.8373 11.2853 12.72 10.624 12.72C9.89867 12.72 9.344 12.848 8.96 13.104C8.576 13.3387 8.384 13.6907 8.384 14.16C8.384 14.48 8.50133 14.7573 8.736 14.992C8.97067 15.2267 9.38667 15.44 9.984 15.632C10.5813 15.8027 11.4133 15.9947 12.48 16.208C14.5067 16.5067 16.1387 16.9333 17.376 17.488C18.6347 18.0427 19.552 18.768 20.128 19.664C20.704 20.56 20.992 21.68 20.992 23.024C20.992 24.5387 20.5547 25.84 19.68 26.928C18.8053 28.016 17.6 28.8587 16.064 29.456C14.5493 30.032 12.8107 30.32 10.848 30.32ZM24.246 30C24.0113 30 23.8087 29.9253 23.638 29.776C23.4887 29.6053 23.414 29.4027 23.414 29.168V14.192C23.414 13.9573 23.4887 13.7653 23.638 13.616C23.8087 13.4453 24.0113 13.36 24.246 13.36H28.982C29.2167 13.36 29.4193 13.4453 29.59 13.616C29.7607 13.7653 29.846 13.9573 29.846 14.192V29.168C29.846 29.4027 29.7607 29.6053 29.59 29.776C29.4193 29.9253 29.2167 30 28.982 30H24.246ZM24.31 11.28C24.0753 11.28 23.8727 11.2053 23.702 11.056C23.5527 10.8853 23.478 10.6827 23.478 10.448V7.088C23.478 6.85333 23.5527 6.65067 23.702 6.48C23.8727 6.30933 24.0753 6.224 24.31 6.224H28.918C29.1527 6.224 29.3553 6.30933 29.526 6.48C29.6967 6.65067 29.782 6.85333 29.782 7.088V10.448C29.782 10.6827 29.6967 10.8853 29.526 11.056C29.3553 11.2053 29.1527 11.28 28.918 11.28H24.31ZM44.1728 30.32C43.0208 30.32 42.0501 30.1387 41.2608 29.776C40.4928 29.392 39.8421 28.8907 39.3088 28.272V29.168C39.3088 29.4027 39.2234 29.6053 39.0528 29.776C38.9034 29.9253 38.7114 30 38.4768 30H33.9648C33.7301 30 33.5274 29.9253 33.3568 29.776C33.2074 29.6053 33.1328 29.4027 33.1328 29.168V8.112C33.1328 7.87733 33.2074 7.68533 33.3568 7.536C33.5274 7.36533 33.7301 7.28 33.9648 7.28H38.8928C39.1061 7.28 39.2981 7.36533 39.4688 7.536C39.6394 7.68533 39.7248 7.87733 39.7248 8.112V14.736C40.2368 14.224 40.8554 13.8187 41.5808 13.52C42.3274 13.2 43.1914 13.04 44.1728 13.04C45.1754 13.04 46.0821 13.2107 46.8928 13.552C47.7034 13.872 48.4074 14.3413 49.0048 14.96C49.6021 15.5787 50.0714 16.3573 50.4128 17.296C50.7541 18.2133 50.9461 19.2693 50.9888 20.464C51.0101 20.912 51.0208 21.3067 51.0208 21.648C51.0208 21.9893 51.0101 22.3947 50.9888 22.864C50.9248 24.1227 50.7221 25.2213 50.3808 26.16C50.0394 27.0987 49.5701 27.8773 48.9728 28.496C48.3754 29.1147 47.6714 29.5733 46.8608 29.872C46.0714 30.1707 45.1754 30.32 44.1728 30.32ZM41.9968 25.328C42.5514 25.328 42.9781 25.2213 43.2768 25.008C43.5968 24.7733 43.8208 24.464 43.9488 24.08C44.0981 23.6747 44.1941 23.216 44.2368 22.704C44.3008 22.0213 44.3008 21.3387 44.2368 20.656C44.1941 20.144 44.0981 19.696 43.9488 19.312C43.8208 18.9067 43.5968 18.5973 43.2768 18.384C42.9781 18.1493 42.5514 18.032 41.9968 18.032C41.4634 18.032 41.0368 18.1387 40.7168 18.352C40.3968 18.5653 40.1514 18.8427 39.9808 19.184C39.8314 19.5253 39.7461 19.92 39.7248 20.368C39.7034 20.816 39.6927 21.2107 39.6927 21.552C39.6927 21.8933 39.7034 22.2987 39.7248 22.768C39.7461 23.2373 39.8208 23.664 39.9488 24.048C40.0981 24.432 40.3328 24.7413 40.6528 24.976C40.9941 25.2107 41.4421 25.328 41.9968 25.328ZM61.9803 30.32C59.3136 30.32 57.1909 29.6373 55.6123 28.272C54.0549 26.8853 53.2549 24.7733 53.2122 21.936C53.2122 21.8507 53.2122 21.744 53.2122 21.616C53.2122 21.4667 53.2122 21.36 53.2122 21.296C53.2763 19.5253 53.6603 18.032 54.3643 16.816C55.0896 15.5787 56.0923 14.64 57.3723 14C58.6736 13.36 60.1989 13.04 61.9483 13.04C63.9109 13.04 65.5323 13.4347 66.8123 14.224C68.1136 14.992 69.0843 16.0267 69.7243 17.328C70.3643 18.608 70.6843 20.048 70.6843 21.648V22.544C70.6843 22.7573 70.5989 22.9493 70.4283 23.12C70.2576 23.2907 70.0549 23.376 69.8203 23.376H59.9643C59.9643 23.376 59.9643 23.3973 59.9643 23.44C59.9643 23.4827 59.9643 23.5253 59.9643 23.568C59.9643 24.08 60.0283 24.5387 60.1562 24.944C60.3056 25.328 60.5296 25.6373 60.8283 25.872C61.1269 26.0853 61.4896 26.192 61.9163 26.192C62.1936 26.192 62.4283 26.1493 62.6203 26.064C62.8123 25.9787 62.9723 25.872 63.1003 25.744C63.2496 25.5947 63.3776 25.456 63.4843 25.328C63.6763 25.136 63.8363 25.0187 63.9643 24.976C64.0923 24.912 64.2843 24.88 64.5403 24.88H69.5643C69.7563 24.88 69.9163 24.944 70.0443 25.072C70.1936 25.2 70.2576 25.36 70.2362 25.552C70.2149 25.936 70.0336 26.4053 69.6923 26.96C69.3509 27.4933 68.8389 28.016 68.1562 28.528C67.4949 29.04 66.6416 29.4667 65.5963 29.808C64.5509 30.1493 63.3456 30.32 61.9803 30.32ZM59.9643 19.792H63.9323V19.728C63.9323 19.152 63.8576 18.6613 63.7083 18.256C63.5589 17.8507 63.3349 17.552 63.0363 17.36C62.7376 17.1467 62.3749 17.04 61.9483 17.04C61.5216 17.04 61.1589 17.1467 60.8603 17.36C60.5616 17.552 60.3376 17.8507 60.1883 18.256C60.0389 18.6613 59.9643 19.152 59.9643 19.728V19.792ZM83.4643 30.32C81.4803 30.32 79.7309 30.0107 78.2163 29.392C76.7229 28.7733 75.5496 27.8133 74.6963 26.512C73.8643 25.1893 73.4483 23.5253 73.4483 21.52V8.432C73.4483 8.19733 73.5336 8.00533 73.7043 7.856C73.8749 7.68533 74.0669 7.6 74.2803 7.6H79.4963C79.7309 7.6 79.9229 7.68533 80.0723 7.856C80.2429 8.00533 80.3283 8.19733 80.3283 8.432V21.424C80.3283 22.512 80.5949 23.3333 81.1283 23.888C81.6616 24.4427 82.4296 24.72 83.4323 24.72C84.4349 24.72 85.1923 24.4427 85.7043 23.888C86.2376 23.3333 86.5043 22.512 86.5043 21.424V8.432C86.5043 8.19733 86.5896 8.00533 86.7603 7.856C86.9309 7.68533 87.1336 7.6 87.3683 7.6H92.5523C92.7869 7.6 92.9789 7.68533 93.1283 7.856C93.2989 8.00533 93.3843 8.19733 93.3843 8.432V21.52C93.3843 23.5253 92.9683 25.1893 92.1363 26.512C91.3043 27.8133 90.1416 28.7733 88.6483 29.392C87.1549 30.0107 85.4269 30.32 83.4643 30.32ZM95.8953 30C95.7033 30 95.5433 29.936 95.4153 29.808C95.2873 29.6587 95.2233 29.488 95.2233 29.296C95.2233 29.2533 95.2233 29.2107 95.2233 29.168C95.2446 29.104 95.2766 29.0293 95.3193 28.944L102.167 18.544L95.9273 8.656C95.8419 8.528 95.7993 8.41067 95.7993 8.304C95.7993 8.112 95.8633 7.952 95.9913 7.824C96.1406 7.67467 96.3113 7.6 96.5033 7.6H102.295C102.658 7.6 102.935 7.696 103.127 7.888C103.319 8.08 103.447 8.22933 103.511 8.336L106.551 13.2L109.687 8.336C109.773 8.22933 109.911 8.08 110.103 7.888C110.295 7.696 110.573 7.6 110.935 7.6H116.439C116.631 7.6 116.791 7.67467 116.919 7.824C117.069 7.952 117.143 8.112 117.143 8.304C117.143 8.432 117.111 8.54933 117.047 8.656L110.679 18.48L117.623 28.944C117.666 29.0293 117.687 29.104 117.687 29.168C117.709 29.2107 117.719 29.2533 117.719 29.296C117.719 29.488 117.645 29.6587 117.495 29.808C117.367 29.936 117.218 30 117.047 30H111.031C110.669 30 110.391 29.9147 110.199 29.744C110.007 29.552 109.89 29.4027 109.847 29.296L106.327 24.08L102.903 29.296C102.861 29.4027 102.743 29.552 102.551 29.744C102.359 29.9147 102.082 30 101.719 30H95.8953Z" fill="white"/>
<rect x="120" y="24" width="6" height="6" fill="#FF4C61"/>
</svg>
